<svg width="214" height="148" viewBox="0 0 214 148" fill="none" xmlns="http://www.w3.org/2000/svg">
<g clip-path="url(#clip0)">
<path d="M98.9769 88.1907C98.5655 88.172 98.4987 87.7979 98.3331 87.5629C96.797 85.3963 95.3117 83.1923 93.7408 81.0525C84.8582 68.9293 75.3851 57.3137 64.4428 46.9564C58.9101 41.7203 52.8833 37.2323 45.8573 34.1868C39.6809 31.51 33.2479 29.8162 26.5666 28.9587C19.4204 28.0424 12.2849 27.7111 5.13868 28.8492C3.42627 29.1217 1.70317 29.4022 -0.00390625 29.9685C0.225841 30.3105 0.383458 30.5616 0.557104 30.7993C5.81991 38.015 11.0907 45.2253 16.3429 52.4463C28.6343 69.338 41.0326 86.1496 53.5832 102.846C57.6252 108.221 62.4178 112.763 68.4553 115.867C73.7609 118.595 79.4137 120.107 85.3524 120.486C88.4433 120.684 91.5556 120.737 94.6011 119.949C99.0544 118.798 102.709 116.319 105.856 113.051C106.545 112.335 106.887 112.309 107.598 113.051C111.271 116.904 115.596 119.666 120.966 120.435C124.952 121.007 128.946 120.711 132.883 120.019C142.84 118.269 151.129 113.527 157.624 105.764C161.984 100.552 165.887 94.9869 169.937 89.5397C182.997 71.9748 195.935 54.3217 208.804 36.6151C210.385 34.4406 211.962 32.2633 213.581 30.03C209.424 28.94 205.31 28.3336 201.142 28.192C195.179 27.9889 189.257 28.5526 183.39 29.5598C170.161 31.8305 158.765 37.6704 149.072 46.9992C137.711 57.9362 127.759 70.0513 118.567 82.821C117.266 84.6269 116.005 86.4622 114.541 88.5486C114.541 87.9876 114.546 87.7445 114.541 87.5014C114.29 77.657 114.629 67.8287 115.276 58.0083C115.468 55.1044 115.684 52.1925 116.288 49.334C117.48 43.7026 119.782 38.5119 122.593 33.5269C126.464 26.6639 132.448 22.7956 140.062 21.2248C141.862 20.8534 143.684 20.7973 145.789 20.7573C141.424 16.7981 136.567 15.4303 130.979 16.189C135.095 11.8426 137.457 6.79613 138.015 0.908203C137.908 0.921561 137.815 0.905532 137.772 0.942932C137.468 1.21008 137.166 1.48257 136.874 1.76575C133.348 5.21195 129.269 7.78191 124.663 9.54508C123.405 10.0259 122.286 10.2851 121.059 9.42487C120.453 8.99743 119.646 8.82111 118.903 8.62877C113.737 7.29303 108.664 7.86473 103.695 9.56111C94.2698 12.7829 89.763 21.6522 92.7631 30.9757C94.3072 35.7763 95.4052 40.6945 96.3028 45.6421C97.5744 52.6493 98.3251 59.7341 98.7525 66.8429C99.188 73.9383 99.1452 81.0418 98.9769 88.1907Z" fill="#FCFCFE"/>
<path d="M98.9782 88.1907C99.1491 81.0418 99.1892 73.9383 98.7591 66.8429C98.329 59.7341 97.581 52.6493 96.3094 45.6421C95.4117 40.6945 94.3138 35.779 92.7697 30.9757C89.7696 21.6522 94.2764 12.7856 103.701 9.56111C108.67 7.86205 113.743 7.29303 118.91 8.62877C119.653 8.82111 120.459 8.99743 121.066 9.42487C122.292 10.2851 123.411 10.0259 124.67 9.54508C129.278 7.78191 133.355 5.21195 136.881 1.76575C137.172 1.48257 137.474 1.21008 137.779 0.942932C137.824 0.90286 137.918 0.921561 138.022 0.908203C137.463 6.79613 135.102 11.8426 130.985 16.189C136.574 15.4303 141.428 16.7981 145.796 20.7573C143.691 20.7973 141.869 20.8534 140.068 21.2248C132.454 22.7929 126.47 26.6612 122.599 33.5269C119.789 38.5119 117.486 43.7026 116.295 49.334C115.691 52.1925 115.472 55.1044 115.282 58.0083C114.636 67.8287 114.296 77.6597 114.548 87.5014C114.553 87.7445 114.548 87.9849 114.548 88.5486C116.011 86.4649 117.272 84.6296 118.573 82.821C127.766 70.0487 137.715 57.9362 149.079 46.9992C158.771 37.6704 170.168 31.8279 183.397 29.5598C189.266 28.5526 195.186 27.9889 201.149 28.192C205.316 28.3336 209.428 28.9427 213.587 30.03C211.968 32.2606 210.392 34.4406 208.811 36.6151C195.942 54.3217 183.004 71.9775 169.943 89.5397C165.893 94.9869 161.99 100.554 157.63 105.764C151.136 113.527 142.846 118.269 132.89 120.019C128.952 120.711 124.958 121.007 120.972 120.435C115.603 119.666 111.278 116.904 107.604 113.051C106.896 112.309 106.552 112.335 105.863 113.051C102.716 116.319 99.061 118.798 94.6076 119.949C91.5621 120.737 88.4525 120.684 85.359 120.486C79.4203 120.107 73.7701 118.597 68.4619 115.867C62.4217 112.763 57.6291 108.221 53.5898 102.846C41.0365 86.1496 28.6382 69.338 16.3494 52.4463C11.0946 45.2253 5.82382 38.015 0.56101 30.7993C0.387364 30.5616 0.229747 30.3105 0 29.9685C1.70707 29.4022 3.43017 29.1217 5.14259 28.8492C12.2861 27.7111 19.4243 28.0397 26.5705 28.9587C33.2519 29.8162 39.6848 31.51 45.8612 34.1868C52.8872 37.2323 58.914 41.7203 64.4467 46.9564C75.389 57.3137 84.8621 68.9293 93.7421 81.0525C95.3102 83.195 96.7982 85.3963 98.3343 87.5629C98.5 87.7953 98.5668 88.172 98.9782 88.1907ZM37.4354 54.1694C35.3116 55.1872 33.4121 56.555 31.5448 57.9709C31.1975 58.2354 30.9891 58.4518 31.3524 58.9273C33.4015 61.6041 35.4157 64.3103 37.4407 67.0058C39.2092 69.6186 41.1194 72.1217 43.0669 74.6009C45.5674 77.9963 48.0679 81.3891 50.5684 84.7845C52.4117 87.5121 54.3325 90.1862 56.3574 92.7829C58.6603 96.0314 61.0966 99.1758 63.7093 102.184C65.4859 104.521 67.3158 106.816 69.469 108.825C71.6997 111.272 74.1602 113.449 76.9732 115.213C78.7364 116.567 80.6225 117.684 82.7837 118.287C85.2388 119.209 87.6912 119.265 90.1463 118.285C92.401 117.513 94.2123 116.07 95.9247 114.475C98.2435 112.56 100.17 110.284 101.986 107.903C102.253 107.554 102.296 107.31 101.989 106.952C99.8117 104.404 97.8615 101.679 95.9327 98.9407C94.1535 96.0261 92.1873 93.2371 90.1703 90.4828C87.8381 86.9511 85.3884 83.5049 82.8211 80.1388C80.9938 77.5929 79.1077 75.0924 77.0373 72.7362C74.6624 69.68 72.194 66.7066 69.5332 63.8936C67.7753 61.6549 65.8091 59.6059 63.7975 57.5996C63.2365 57.0145 62.7075 56.3921 62.1091 55.8471C60.3192 54.2175 58.7671 52.2807 56.4109 51.3697C54.5595 50.5175 52.6094 50.2504 50.5897 50.3813C47.9904 50.3732 45.5193 51.0251 43.0802 51.8479C41.0846 52.3501 39.2199 53.1623 37.4354 54.1694ZM176.301 66.8028C178.273 64.1848 180.242 61.5641 182.224 58.954C182.496 58.5934 182.523 58.3583 182.131 58.0537C180.295 56.6325 178.433 55.2594 176.307 54.2896C174.466 53.1943 172.54 52.3047 170.421 51.896C168.038 50.9423 165.567 50.4106 162.995 50.4C161.037 50.2236 159.158 50.5442 157.345 51.2896C154.195 52.6306 152.175 55.3155 149.824 57.6076C147.762 59.5791 145.841 61.6843 144.051 63.9069C141.465 66.6853 139.024 69.5865 136.683 72.5705C134.602 74.9936 132.655 77.5154 130.798 80.1148C128.233 83.5022 125.749 86.9484 123.419 90.5015C121.397 93.2558 119.458 96.0688 117.649 98.9674C115.731 101.698 113.802 104.42 111.617 106.95C111.331 107.281 111.336 107.57 111.612 107.925C113.431 110.286 115.328 112.576 117.654 114.47C119.386 116.043 121.165 117.55 123.449 118.285C125.947 119.321 128.442 119.177 130.937 118.274C133.077 117.63 134.96 116.506 136.737 115.181C139.47 113.436 141.85 111.272 144.089 108.943C146.186 106.827 148.144 104.591 149.883 102.168C152.584 99.133 155.028 95.9005 157.393 92.6013C159.348 90.0527 161.253 87.4693 163.027 84.7899C165.525 81.3917 168.025 77.9936 170.523 74.5955C172.556 72.0736 174.482 69.477 176.301 66.8028ZM125.324 27.0219C120.299 27.0566 115.461 26.9845 110.631 27.4039C108.652 27.5775 106.68 27.7806 104.775 28.3977C103.202 28.9079 102.336 29.9231 102.259 31.6248C102.155 33.8983 102.996 35.8725 104.094 37.7639C106.405 41.7497 109.603 44.9662 113.076 47.9315C114.558 49.1978 114.569 49.1844 115.109 47.3091C117.227 39.9785 120.243 33.0995 125.324 27.0219ZM130.982 16.2719C130.956 16.2478 130.929 16.2024 130.908 16.2077C130.857 16.2158 130.811 16.2451 130.766 16.2665C130.79 16.2906 130.814 16.336 130.833 16.3306C130.884 16.3226 130.929 16.2932 130.982 16.2719Z" fill="#FCFCFE"/>
<path d="M69.5299 63.8965C72.1881 66.7095 74.6592 69.6829 77.0341 72.7391C77.0261 84.8275 77.0181 96.9159 77.0047 109.002C77.0021 111.072 76.9807 113.14 76.97 115.21C74.1569 113.447 71.6965 111.27 69.4658 108.823C69.4765 101.057 69.4872 93.2934 69.4979 85.5274C69.5086 78.3171 69.5192 71.1068 69.5299 63.8965Z" fill="#0F0F38"/>
<path d="M149.826 57.6051C152.177 55.313 154.197 52.6282 157.346 51.2871C157.352 61.2544 157.354 71.2243 157.362 81.1916C157.365 84.9931 157.384 88.7946 157.394 92.5988C155.03 95.8954 152.586 99.1306 149.885 102.165C149.874 99.0985 149.856 96.0317 149.853 92.9675C149.84 81.1809 149.834 69.3917 149.826 57.6051Z" fill="#0F0F38"/>
<path d="M136.683 72.5708C139.026 69.5841 141.465 66.6829 144.053 63.9072C144.064 64.3881 144.085 64.869 144.085 65.3472C144.088 79.8773 144.088 94.4101 144.091 108.94C141.852 111.27 139.472 113.434 136.739 115.178C136.728 114.623 136.709 114.07 136.709 113.514C136.699 99.8653 136.691 86.2167 136.683 72.5708Z" fill="#0F0F38"/>
<path d="M63.7093 102.184C61.0966 99.1757 58.6602 96.0341 56.3574 92.7829C56.3654 84.2208 56.3708 75.6587 56.3815 67.0966C56.3868 61.8552 56.4028 56.6164 56.4109 51.375C58.7671 52.286 60.3192 54.2228 62.1091 55.8524C62.7075 56.3974 63.2365 57.0172 63.7948 57.6049C63.7814 58.1205 63.7547 58.6387 63.7547 59.1543C63.7521 72.9819 63.7521 86.8068 63.7521 100.634C63.7494 101.15 63.7227 101.666 63.7093 102.184Z" fill="#0F0F38"/>
<path d="M125.324 27.0215C120.245 33.0991 117.226 39.9781 115.11 47.3087C114.568 49.184 114.56 49.1974 113.077 47.9311C109.605 44.9658 106.407 41.752 104.096 37.7635C102.998 35.8721 102.156 33.8952 102.261 31.6244C102.338 29.9227 103.204 28.9075 104.777 28.3973C106.682 27.7802 108.654 27.5772 110.633 27.4035C115.46 26.9814 120.298 27.0535 125.324 27.0215Z" fill="#0F0F38"/>
<path d="M63.709 102.183C63.7223 101.668 63.7491 101.15 63.7491 100.634C63.7517 86.8064 63.7517 72.9815 63.7517 59.1539C63.7517 58.6357 63.7784 58.1201 63.7918 57.6045C65.8034 59.6108 67.7696 61.6598 69.5274 63.8985C69.5167 71.1088 69.5061 78.3191 69.498 85.5294C69.4874 93.2954 69.4767 101.059 69.466 108.825C67.3128 106.813 65.4855 104.521 63.709 102.183Z" fill="#009A9C"/>
<path d="M144.088 108.94C144.088 94.4097 144.086 79.8768 144.083 65.3467C144.083 64.8658 144.061 64.385 144.051 63.9068C145.841 61.6841 147.761 59.579 149.824 57.6074C149.832 69.394 149.84 81.1805 149.851 92.9671C149.853 96.0339 149.872 99.1008 149.883 102.165C148.144 104.588 146.188 106.824 144.088 108.94Z" fill="#009A9C"/>
<path d="M130.937 118.272C128.442 119.175 125.946 119.319 123.449 118.282C123.441 109.02 123.43 99.761 123.422 90.499C125.751 86.9459 128.236 83.4997 130.801 80.1123C131.014 80.3661 130.947 80.6733 130.947 80.9618C130.945 93.4002 130.939 105.836 130.937 118.272Z" fill="#0F0F38"/>
<path d="M82.8183 80.1416C85.383 83.5077 87.8354 86.9539 90.1676 90.4856C90.1596 99.7529 90.1516 109.018 90.1435 118.285C87.6911 119.265 85.236 119.207 82.7809 118.288C82.7809 109.971 82.7783 101.655 82.7836 93.3387C82.789 88.9388 82.8077 84.5389 82.8183 80.1416Z" fill="#0F0F38"/>
<path d="M130.937 118.271C130.939 105.836 130.945 93.3998 130.945 80.9641C130.945 80.6756 131.012 80.3683 130.798 80.1146C132.652 77.5152 134.602 74.9907 136.683 72.5703C136.691 86.2189 136.699 99.8674 136.707 113.516C136.707 114.072 136.726 114.625 136.737 115.18C134.96 116.503 133.077 117.627 130.937 118.271Z" fill="#009A9C"/>
<path d="M82.8186 80.1419C82.8079 84.5392 82.7892 88.9391 82.7838 93.3363C82.7785 101.653 82.7812 109.969 82.7812 118.285C80.6199 117.681 78.7339 116.565 76.9707 115.21C76.9814 113.14 77.0028 111.072 77.0054 109.002C77.0161 96.9134 77.0241 84.8277 77.0348 72.7393C79.1052 75.0955 80.994 77.596 82.8186 80.1419Z" fill="#009A9C"/>
<path d="M56.4079 51.3721C56.3973 56.6136 56.3839 61.8523 56.3786 67.0938C56.3679 75.6558 56.3625 84.2179 56.3545 92.78C54.3295 90.1833 52.4087 87.5118 50.5654 84.7816C50.5734 73.3156 50.5788 61.847 50.5868 50.381C52.6064 50.2528 54.5566 50.5199 56.4079 51.3721Z" fill="#009A9C"/>
<path d="M170.523 74.5933C168.025 77.9914 165.524 81.3895 163.027 84.7876C163.013 84.6033 162.989 84.419 162.989 84.2346C162.989 72.9557 162.995 61.6767 162.997 50.4004C165.573 50.4084 168.041 50.94 170.427 51.8964C170.451 52.3372 170.491 52.778 170.491 53.2188C170.501 60.3436 170.512 67.4684 170.523 74.5933Z" fill="#0F0F38"/>
<path d="M50.5864 50.3838C50.5783 61.8498 50.573 73.3184 50.565 84.7844C48.0645 81.389 45.564 77.9962 43.0635 74.6007C43.0688 67.0164 43.0715 59.4321 43.0768 51.8478C45.5159 51.0276 47.987 50.3785 50.5864 50.3838Z" fill="#0F0F38"/>
<path d="M162.994 50.3999C162.991 61.6789 162.989 72.9578 162.986 84.2341C162.986 84.4184 163.01 84.6028 163.023 84.7871C161.249 87.4666 159.347 90.0499 157.392 92.5985C157.381 88.797 157.362 84.9955 157.36 81.1913C157.352 71.224 157.349 61.2541 157.344 51.2868C159.158 50.5441 161.036 50.2236 162.994 50.3999Z" fill="#009A9C"/>
<path d="M90.1436 118.282C90.1516 109.014 90.1596 99.7498 90.1676 90.4824C92.1846 93.2367 94.1508 96.0231 95.93 98.9403C95.9273 104.118 95.9246 109.295 95.922 114.472C94.2122 116.07 92.3983 117.512 90.1436 118.282Z" fill="#009A9C"/>
<path d="M123.419 90.499C123.427 99.761 123.437 109.02 123.445 118.282C121.161 117.548 119.385 116.041 117.651 114.467C117.648 109.301 117.648 104.132 117.646 98.9649C119.459 96.0664 121.396 93.2533 123.419 90.499Z" fill="#009A9C"/>
<path d="M170.523 74.5924C170.512 67.4675 170.504 60.3427 170.488 53.2179C170.488 52.7771 170.445 52.3363 170.424 51.8955C172.542 52.3069 174.466 53.1965 176.309 54.2892C176.306 58.4593 176.306 62.6322 176.304 66.8023C174.482 69.4765 172.556 72.0732 170.523 74.5924Z" fill="#009A9C"/>
<path d="M43.0774 51.8506C43.0721 59.4349 43.0694 67.0192 43.0641 74.6036C41.1193 72.1244 39.2065 69.6213 37.438 67.0085C37.4353 62.7288 37.4353 58.4518 37.4326 54.1721C39.2198 53.1623 41.0845 52.3502 43.0774 51.8506Z" fill="#009A9C"/>
<path d="M95.9219 114.472C95.9245 109.295 95.9272 104.118 95.9299 98.9404C97.8587 101.679 99.8089 104.404 101.986 106.952C102.293 107.31 102.248 107.553 101.983 107.903C100.167 110.281 98.2434 112.56 95.9219 114.472Z" fill="#0F0F38"/>
<path d="M117.649 98.9648C117.651 104.131 117.651 109.301 117.654 114.467C115.33 112.573 113.433 110.284 111.611 107.922C111.336 107.564 111.331 107.278 111.616 106.947C113.802 104.417 115.73 101.695 117.649 98.9648Z" fill="#0F0F38"/>
<path d="M37.4355 54.1689C37.4381 58.4486 37.4381 62.7283 37.4408 67.0054C35.4158 64.3099 33.4015 61.6037 31.3525 58.9268C30.9892 58.4513 31.1976 58.2323 31.5449 57.9705C33.4122 56.5546 35.3116 55.1868 37.4355 54.1689Z" fill="#0F0F38"/>
<path d="M176.301 66.8032C176.303 62.6331 176.303 58.4602 176.306 54.29C178.433 55.2598 180.295 56.6329 182.13 58.0541C182.523 58.3587 182.496 58.5938 182.223 58.9544C180.241 61.5645 178.275 64.1852 176.301 66.8032Z" fill="#0F0F38"/>
<path d="M130.982 16.2716C130.929 16.2956 130.883 16.3224 130.832 16.3304C130.814 16.333 130.787 16.2876 130.766 16.2663C130.814 16.2449 130.859 16.2155 130.907 16.2075C130.926 16.2021 130.955 16.2449 130.982 16.2716Z" fill="#FCFCFE"/>
<path d="M207.443 147.524C206.855 144.072 206.27 140.637 205.688 137.201C205.661 137.196 205.637 137.193 205.611 137.188C204.438 140.634 203.289 144.088 202.111 147.553C201.16 147.553 200.23 147.553 199.247 147.553C198.101 144.112 196.95 140.653 195.798 137.193C195.771 137.193 195.745 137.193 195.718 137.193C195.12 140.634 194.524 144.075 193.92 147.556C192.878 147.612 191.852 147.58 190.76 147.588C191.732 141.954 192.694 136.373 193.661 130.776C194.716 130.776 195.747 130.776 196.832 130.776C198.101 134.602 199.378 138.451 200.652 142.298C200.679 142.301 200.706 142.301 200.732 142.304C202.023 138.465 203.313 134.623 204.606 130.773C205.648 130.773 206.666 130.773 207.684 130.773C207.82 130.963 210.505 147.126 210.521 147.518C210.243 147.596 207.852 147.606 207.443 147.524Z" fill="#FCFCFE"/>
<path d="M169.008 142.039C167.437 142.039 165.859 142.039 164.258 142.039C164.258 141.027 164.258 140.06 164.258 139.093C164.528 139.004 171.971 138.967 172.7 139.055C172.775 139.37 172.767 139.707 172.748 140.036C172.623 142.376 171.696 144.35 169.997 145.953C168.768 147.115 167.277 147.73 165.605 147.919C163.956 148.106 162.335 147.978 160.788 147.361C157.841 146.188 156.086 143.979 155.442 140.915C154.662 137.207 156.153 133.752 159.311 131.687C160.671 130.798 162.191 130.408 163.804 130.346C165.332 130.287 166.812 130.504 168.233 131.078C169.497 131.588 170.531 132.419 171.455 133.397C171.479 133.424 171.493 133.461 171.479 133.437C170.742 134.204 170.021 134.957 169.281 135.729C169.168 135.622 169.072 135.529 168.973 135.435C167.99 134.49 166.858 133.806 165.495 133.587C163.003 133.181 160.93 133.889 159.428 135.986C158.664 137.052 158.44 138.267 158.512 139.568C158.651 142.09 160.791 144.478 163.631 144.799C164.603 144.908 165.573 144.868 166.51 144.529C167.667 144.112 168.447 143.292 169 142.224C169.011 142.202 169.019 142.176 169.022 142.151C169.024 142.133 169.016 142.109 169.008 142.039Z" fill="#FCFCFE"/>
<path d="M177.778 147.527C177.778 141.959 177.778 136.387 177.778 130.817C178.051 130.739 186.522 130.723 186.947 130.801C186.947 131.811 186.947 132.826 186.947 133.889C184.957 133.889 182.996 133.889 181.005 133.889C181.005 134.904 181.005 135.871 181.005 136.878C182.977 136.878 184.941 136.878 186.893 136.878C186.99 137.172 187.016 139.454 186.933 139.999C186.551 140.068 186.156 140.023 185.763 140.031C185.376 140.039 184.991 140.033 184.604 140.033C184.206 140.033 183.805 140.033 183.407 140.033C183.02 140.033 182.635 140.033 182.248 140.033C181.85 140.033 181.452 140.033 181.064 140.033C180.965 140.317 180.939 143.931 181.03 144.447C182.988 144.447 184.954 144.447 186.971 144.447C186.984 145.499 186.976 146.514 186.976 147.516C186.64 147.612 178.126 147.618 177.778 147.527Z" fill="#FCFCFE"/>
<path d="M2.72266 130.78C3.34244 130.78 3.88742 130.78 4.45912 130.78C5.58381 134.768 6.70315 138.746 7.81983 142.708C7.8599 142.724 7.87326 142.732 7.88395 142.729C7.89463 142.727 7.90799 142.719 7.91333 142.708C9.49752 138.738 11.079 134.766 12.6605 130.801C13.0292 130.745 13.0319 130.742 13.1735 131.106C14.5493 134.611 15.9224 138.116 17.2982 141.621C17.4478 142 17.6001 142.379 17.8218 142.753C18.9679 138.767 20.114 134.782 21.2654 130.782C21.8371 130.782 22.3927 130.782 22.9804 130.782C22.9377 130.937 22.9056 131.068 22.8682 131.199C21.3535 136.494 19.8361 141.792 18.3214 147.086C18.2893 147.193 18.2706 147.308 18.2172 147.404C18.1825 147.468 18.0997 147.549 18.0382 147.546C17.9554 147.546 17.8566 147.49 17.8005 147.426C17.739 147.354 17.7176 147.247 17.6802 147.153C16.1495 143.242 14.6187 139.329 13.088 135.417C13.0292 135.271 12.9678 135.126 12.8769 134.905C12.7888 135.097 12.7273 135.212 12.6792 135.329C11.1218 139.232 9.56698 143.133 8.01218 147.036C7.97478 147.129 7.94005 147.22 7.89998 147.314C7.79312 147.562 7.79312 147.562 7.43781 147.519C5.87233 141.96 4.3015 136.385 2.72266 130.78Z" fill="#009A9C"/>
<path d="M102.833 139.104C102.766 135.895 104.78 132 108.996 130.734C112.984 129.537 117.488 131.001 119.647 135.209C120.414 136.705 120.654 138.315 120.494 139.969C120.165 143.378 118.365 145.782 115.311 147.246C113.863 147.941 112.303 148.085 110.708 147.93C108.05 147.671 105.982 146.394 104.414 144.273C103.308 142.78 102.819 141.078 102.833 139.104ZM111.651 146.325C115.701 146.319 118.784 143.21 118.781 139.138C118.779 134.626 115.068 132.003 111.657 132C108.213 131.997 104.582 134.72 104.577 139.272C104.572 143.258 107.887 146.383 111.651 146.325Z" fill="#009A9C"/>
<path d="M134.255 130.339C137.651 130.419 140.317 131.974 142.034 135.081C142.873 136.598 143.114 138.268 142.951 139.975C142.622 143.384 140.819 145.788 137.763 147.252C136.312 147.947 134.755 148.091 133.16 147.933C130.515 147.674 128.455 146.408 126.89 144.303C125.757 142.777 125.271 141.043 125.29 139.149C125.308 137.066 125.947 135.196 127.253 133.582C129.011 131.413 131.322 130.368 134.255 130.339ZM134.14 132.003C130.75 131.976 127.154 134.613 127.037 139.059C126.927 143.205 130.304 146.314 134.007 146.328C138.035 146.341 141.182 143.29 141.244 139.315C141.313 134.675 137.557 132.006 134.14 132.003Z" fill="#009A9C"/>
<path d="M76.1527 147.526C76.0057 147.542 75.9203 147.559 75.8374 147.559C75.402 147.561 74.9665 147.559 74.5391 147.559C74.4456 147.257 74.4055 131.687 74.4883 130.79C74.5765 130.779 74.67 130.76 74.7662 130.76C76.2515 130.76 77.7369 130.742 79.2195 130.774C79.9889 130.79 80.769 130.84 81.525 130.982C83.6061 131.377 84.9525 133.058 84.9686 135.176C84.9792 136.459 84.5999 137.583 83.6515 138.478C82.9943 139.095 82.1956 139.44 81.322 139.59C80.7717 139.683 80.208 139.712 79.6523 139.768C79.5321 139.782 79.4119 139.787 79.2089 139.803C79.5588 140.287 79.8927 140.696 80.216 141.115C80.5446 141.54 80.8732 141.962 81.2018 142.387C81.5384 142.819 81.875 143.255 82.2116 143.688C82.5402 144.112 82.8688 144.534 83.1974 144.959C83.526 145.384 83.8545 145.806 84.1831 146.231C84.5091 146.65 84.835 147.07 85.1983 147.54C85.0193 147.553 84.9098 147.569 84.8029 147.569C84.3675 147.572 83.9294 147.559 83.4939 147.575C83.2321 147.585 83.0584 147.497 82.8982 147.286C81.6052 145.606 80.3015 143.933 79.0031 142.256C78.4368 141.526 77.8651 140.802 77.3094 140.065C77.1491 139.851 76.9728 139.755 76.711 139.782C76.54 139.798 76.3664 139.785 76.1554 139.785C76.1527 142.384 76.1527 144.935 76.1527 147.526ZM76.1607 138.096C76.2382 138.112 76.2996 138.134 76.3584 138.134C77.4804 138.136 78.6024 138.166 79.7218 138.126C80.2748 138.107 80.8438 138.024 81.3727 137.864C82.6444 137.476 83.2775 136.29 83.2134 135.091C83.1439 133.776 82.2677 132.78 81.0148 132.566C80.4885 132.478 79.9515 132.433 79.4172 132.422C78.4341 132.398 77.4483 132.414 76.4652 132.414C76.3691 132.414 76.2729 132.427 76.1607 132.438C76.1607 134.337 76.1607 136.21 76.1607 138.096Z" fill="#009A9C"/>
<path d="M34.6653 130.771C34.8283 130.771 34.9512 130.771 35.1008 130.771C37.6948 136.339 40.2888 141.906 42.9015 147.514C42.7652 147.532 42.6744 147.556 42.5809 147.556C42.2069 147.562 41.8329 147.543 41.4589 147.564C41.1971 147.578 41.0582 147.487 40.946 147.247C40.3502 145.97 39.7385 144.701 39.132 143.429C38.9611 143.068 38.7767 142.713 38.6218 142.347C38.531 142.128 38.3947 142.064 38.165 142.067C36.2201 142.075 34.2726 142.072 32.3278 142.072C31.9671 142.072 31.6065 142.072 31.2325 142.072C31.1657 142.205 31.1016 142.328 31.0455 142.451C30.3028 144.017 29.5521 145.579 28.8282 147.156C28.6785 147.479 28.4969 147.602 28.1523 147.572C27.8317 147.543 27.5031 147.567 27.1798 147.564C27.0596 147.564 26.9394 147.554 26.7471 147.546C29.4025 141.92 32.0286 136.355 34.6653 130.771ZM34.9325 134.447C34.9004 134.445 34.8684 134.439 34.8336 134.437C33.9013 136.408 32.9663 138.383 32.0179 140.391C33.9414 140.391 35.8114 140.391 37.7295 140.391C36.7865 138.383 35.8595 136.414 34.9325 134.447Z" fill="#009A9C"/>
<path d="M69.247 137.677C69.247 138.262 69.247 138.777 69.247 139.336C66.6316 139.336 64.0403 139.336 61.465 139.336C61.3795 139.64 61.3554 145.387 61.4356 145.921C64.0243 145.924 66.6236 145.921 69.2497 145.924C69.2497 146.479 69.2497 146.984 69.2497 147.489C68.9825 147.58 60.2414 147.607 59.7713 147.521C59.7018 147.249 59.6778 131.337 59.7445 130.819C60.0251 130.747 68.9211 130.736 69.3138 130.811C69.3218 130.889 69.3351 130.974 69.3378 131.057C69.3405 131.492 69.3378 131.925 69.3378 132.409C66.6824 132.409 64.0617 132.409 61.4142 132.409C61.4142 134.185 61.4142 135.911 61.4142 137.679C64.0216 137.677 66.6102 137.677 69.247 137.677Z" fill="#009A9C"/>
<path d="M49.7294 132.409C48.4417 132.409 47.2369 132.409 46 132.409C46 131.853 46 131.327 46 130.779C49.0615 130.779 52.099 130.779 55.1899 130.779C55.2112 131.316 55.2112 131.843 55.1899 132.409C53.9396 132.409 52.7241 132.409 51.4578 132.409C51.4578 137.469 51.4578 142.486 51.4578 147.535C50.8674 147.535 50.3251 147.535 49.7321 147.535C49.7294 142.499 49.7294 137.479 49.7294 132.409Z" fill="#009A9C"/>
<path d="M90.6619 130.779C91.2416 130.779 91.7732 130.779 92.3476 130.779C92.3476 135.82 92.3476 140.843 92.3476 145.911C94.5061 145.911 96.6219 145.911 98.7885 145.911C98.8179 146.472 98.8019 146.987 98.7992 147.495C98.492 147.588 91.0492 147.602 90.6592 147.513C90.6619 141.949 90.6619 136.379 90.6619 130.779Z" fill="#009A9C"/>
<path d="M150.749 147.527C150.362 147.604 147.931 147.596 147.626 147.516C147.626 143.41 147.626 139.299 147.626 135.193C147.933 135.112 150.367 135.104 150.749 135.182C150.749 139.285 150.749 143.394 150.749 147.527Z" fill="#FCFCFE"/>
<path d="M149.224 134.068C148.323 134.132 147.193 133.36 147.183 132.027C147.172 130.927 148.075 130.042 149.189 130.045C150.311 130.045 151.206 130.94 151.209 132.065C151.211 133.171 150.327 134.063 149.224 134.068Z" fill="#FCFCFE"/>
</g>
<defs>
<clipPath id="clip0">
<rect width="213.584" height="147.091" fill="white" transform="translate(0 0.908203)"/>
</clipPath>
</defs>
</svg>
